<svg width="34" height="24" viewBox="0 0 34 24" fill="none" xmlns="http://www.w3.org/2000/svg">
<path fill-rule="evenodd" clip-rule="evenodd" d="M1.79987 0.599976C1.46393 0.599976 1.14175 0.733428 0.904201 0.970974C0.666655 1.20852 0.533203 1.5307 0.533203 1.86664C0.533203 2.20258 0.666655 2.52476 0.904201 2.76231C1.14175 2.99986 1.46393 3.13331 1.79987 3.13331H32.1999C32.5358 3.13331 32.858 2.99986 33.0955 2.76231C33.3331 2.52476 33.4665 2.20258 33.4665 1.86664C33.4665 1.5307 33.3331 1.20852 33.0955 0.970974C32.858 0.733428 32.5358 0.599976 32.1999 0.599976H1.79987ZM0.533203 12C0.533203 11.664 0.666655 11.3419 0.904201 11.1043C1.14175 10.8668 1.46393 10.7333 1.79987 10.7333H32.1999C32.5358 10.7333 32.858 10.8668 33.0955 11.1043C33.3331 11.3419 33.4665 11.664 33.4665 12C33.4665 12.3359 33.3331 12.6581 33.0955 12.8956C32.858 13.1332 32.5358 13.2666 32.1999 13.2666H1.79987C1.46393 13.2666 1.14175 13.1332 0.904201 12.8956C0.666655 12.6581 0.533203 12.3359 0.533203 12ZM0.533203 22.1333C0.533203 21.7974 0.666655 21.4752 0.904201 21.2376C1.14175 21.0001 1.46393 20.8666 1.79987 20.8666H32.1999C32.5358 20.8666 32.858 21.0001 33.0955 21.2376C33.3331 21.4752 33.4665 21.7974 33.4665 22.1333C33.4665 22.4692 33.3331 22.7914 33.0955 23.029C32.858 23.2665 32.5358 23.4 32.1999 23.4H1.79987C1.46393 23.4 1.14175 23.2665 0.904201 23.029C0.666655 22.7914 0.533203 22.4692 0.533203 22.1333Z" fill="#F8F8F8"/>
</svg>
