<svg width="43" height="43" viewBox="0 0 43 43" fill="none" xmlns="http://www.w3.org/2000/svg">
<path d="M42.3127 40.6032L30.5127 28.8032C33.3483 25.399 34.7623 21.0326 34.4606 16.6124C34.1589 12.1922 32.1647 8.05845 28.8928 5.07115C25.6209 2.08384 21.3232 0.472957 16.8939 0.5736C12.4645 0.674243 8.24451 2.47867 5.11168 5.6115C1.97885 8.74433 0.174426 12.9644 0.0737831 17.3937C-0.0268601 21.8231 1.58403 26.1207 4.57133 29.3926C7.55863 32.6645 11.6924 34.6587 16.1126 34.9604C20.5328 35.2622 24.8991 33.8481 28.3033 31.0125L40.1033 42.8125L42.3127 40.6032ZM3.25021 17.8125C3.25021 15.0312 4.07496 12.3124 5.62017 9.99982C7.16538 7.68726 9.36164 5.88483 11.9312 4.82047C14.5008 3.75611 17.3283 3.47763 20.0562 4.02024C22.784 4.56284 25.2897 5.90216 27.2564 7.86884C29.2231 9.83552 30.5624 12.3412 31.105 15.0691C31.6476 17.7969 31.3691 20.6244 30.3048 23.194C29.2404 25.7636 27.438 27.9599 25.1254 29.5051C22.8129 31.0503 20.094 31.875 17.3127 31.875C13.5844 31.8709 10.0099 30.388 7.37359 27.7517C4.73726 25.1153 3.25435 21.5409 3.25021 17.8125Z" fill="#F8F8F8"/>
</svg>
